<svg xmlns="http://www.w3.org/2000/svg" width="1600" height="900" viewBox="0 0 1600 900" role="img" aria-label="BlogToBook turns scattered blog posts into one chronological book for your e-reader">
<defs><linearGradient id="b" x1="0" y1="0" x2="1" y2="1"><stop stop-color="#0b1226"/><stop offset="1" stop-color="#37146b"/></linearGradient><style>.k{font-family:-apple-system,BlinkMacSystemFont,'Segoe UI',sans-serif}.t{fill:#fff;font-weight:800}.s{fill:#b8c7e8}</style></defs><rect width="1600" height="900" fill="url(#b)"/><circle cx="112" cy="760" r="320" fill="#0ea5e9" opacity=".13"/><circle cx="1480" cy="120" r="260" fill="#7c3aed" opacity=".22"/>
<image href="assets/icon.png" x="110" y="87" width="120" height="120"/><text x="250" y="142" class="k t" font-size="48">BlogToBook</text><text x="250" y="184" class="k s" font-size="22">Turn the archive you already want to read into a book.</text>
<g transform="translate(120 340)"><text x="160" y="-35" text-anchor="middle" class="k t" font-size="31">Scattered blog posts</text><g transform="rotate(-7 155 130)"><rect x="0" y="0" width="200" height="250" rx="18" fill="#fff"/><rect x="22" y="27" width="150" height="16" rx="8" fill="#1e293b"/><path d="M22 74h155M22 98h132M22 122h145" stroke="#cbd5e1" stroke-width="10" stroke-linecap="round"/></g><g transform="translate(120 12) rotate(7 155 130)"><rect x="0" y="0" width="200" height="250" rx="18" fill="#fff"/><rect x="22" y="27" width="150" height="16" rx="8" fill="#1e293b"/><path d="M22 74h155M22 98h132M22 122h145" stroke="#cbd5e1" stroke-width="10" stroke-linecap="round"/></g></g>
<path d="M530 490h160" stroke="#7dd3fc" stroke-width="15" stroke-linecap="round"/><path d="m675 460 40 30-40 30" fill="none" stroke="#7dd3fc" stroke-width="15" stroke-linecap="round" stroke-linejoin="round"/>
<g transform="translate(735 330)"><rect width="250" height="320" rx="34" fill="#38bdf8"/><image href="assets/icon.png" x="50" y="39" width="150" height="150"/><text x="125" y="238" text-anchor="middle" class="k t" font-size="30">BlogToBook</text><text x="125" y="274" text-anchor="middle" class="k" fill="#083344" font-size="18">Collect · review · export</text></g>
<path d="M1010 490h120" stroke="#7dd3fc" stroke-width="15" stroke-linecap="round"/><path d="m1115 460 40 30-40 30" fill="none" stroke="#7dd3fc" stroke-width="15" stroke-linecap="round" stroke-linejoin="round"/>
<g transform="translate(1190 320)"><text x="145" y="-15" text-anchor="middle" class="k t" font-size="31">One chronological book</text><path d="M0 15c60-20 108-10 145 25v275c-37-29-85-38-145-20z" fill="#fffdf5"/><path d="M145 40c37-35 85-45 145-25v280c-60-18-108-8-145 20z" fill="#e9e2cf"/><path d="M145 40v275" stroke="#c7bda6" stroke-width="4"/><path d="M31 90h78m-78 34h91m55-34h78m-78 34h91" stroke="#94a3b8" stroke-width="9" stroke-linecap="round"/></g>
<g transform="translate(1305 660)"><rect width="150" height="132" rx="14" fill="#111827"/><rect x="12" y="12" width="126" height="95" rx="6" fill="#f8fafc"/><path d="M33 44h73m-73 20h82m-82 20h62" stroke="#94a3b8" stroke-width="6" stroke-linecap="round"/></g><text x="1380" y="834" text-anchor="middle" class="k s" font-size="23">Read on your e-reader</text>
</svg>
